<?xml version="1.0" standalone="no"?>
<!DOCTYPE svg PUBLIC "-//W3C//DTD SVG 20010904//EN"
 "http://www.w3.org/TR/2001/REC-SVG-20010904/DTD/svg10.dtd">
<svg version="1.0" xmlns="http://www.w3.org/2000/svg"
 width="16.000000pt" height="16.000000pt" viewBox="0 0 16.000000 16.000000"
 preserveAspectRatio="xMidYMid meet">
<metadata>
Created by potrace 1.11, written by Peter Selinger 2001-2013
</metadata>
<g transform="translate(0.000000,16.000000) scale(0.002222,-0.002222)"
fill="#000000" stroke="none">
<path d="M3334 6445 c-62 -28 -99 -71 -120 -141 -8 -30 -20 -54 -26 -54 -6 0
-19 -10 -30 -22 -10 -12 -31 -24 -46 -26 -55 -7 -198 -4 -239 5 -24 6 -43 6
-43 2 0 -5 -3 -8 -7 -7 -12 2 -63 -24 -63 -33 0 -4 -15 -6 -34 -5 -25 3 -40
-3 -57 -19 -37 -35 -62 -67 -80 -103 l-17 -33 54 -56 c30 -31 54 -62 54 -68 0
-7 7 -18 15 -25 8 -7 12 -16 9 -21 -3 -5 0 -9 6 -9 6 0 9 -4 6 -9 -3 -5 1 -14
9 -21 8 -7 15 -21 15 -31 0 -11 5 -19 10 -19 6 0 10 -5 10 -10 0 -6 7 -27 17
-48 9 -20 15 -43 14 -49 -1 -7 2 -13 7 -13 6 0 13 -16 16 -35 4 -19 11 -35 15
-35 5 0 7 -11 6 -25 -2 -14 1 -25 7 -25 6 0 8 -9 5 -20 -3 -10 -1 -20 3 -22 5
-2 11 -19 14 -38 8 -40 14 -65 16 -65 1 0 3 -13 5 -30 5 -48 15 -128 20 -155
3 -14 7 -53 10 -87 4 -52 2 -64 -13 -75 -20 -14 -41 -75 -23 -63 6 3 8 0 5 -8
-3 -8 1 -21 10 -29 11 -12 14 -44 12 -167 -3 -157 -7 -173 -46 -169 -34 3
-100 -48 -100 -77 0 -8 -4 -15 -8 -15 -5 0 -8 -10 -8 -22 1 -13 -3 -23 -9 -24
-5 0 -18 -4 -27 -8 -9 -4 -22 -9 -30 -10 -32 -5 -95 -46 -108 -70 -7 -14 -17
-26 -21 -26 -15 0 -31 -41 -21 -53 6 -7 10 -14 11 -17 1 -37 47 -70 105 -76
122 -14 175 -22 189 -31 6 -4 25 -8 42 -10 52 -5 55 -6 55 -15 0 -4 10 -8 23
-8 33 0 42 -11 42 -50 -1 -19 2 -52 6 -73 3 -20 3 -40 -2 -43 -4 -2 -6 -10 -4
-17 10 -30 12 -77 4 -83 -5 -3 -7 -10 -4 -15 8 -13 12 -130 4 -135 -3 -2 -3
-20 0 -41 4 -21 4 -57 0 -80 -3 -24 -2 -43 3 -43 5 0 6 -5 2 -12 -4 -6 -9 -48
-10 -92 -2 -45 -6 -92 -10 -106 -6 -26 -14 -111 -17 -187 -1 -24 -4 -43 -7
-43 -3 0 -6 -8 -7 -17 -3 -35 -51 -270 -60 -293 -3 -8 -7 -22 -9 -30 -1 -8 -8
-35 -14 -60 -7 -25 -13 -49 -14 -55 -2 -5 -8 -21 -13 -35 -13 -30 -28 -92 -25
-103 1 -4 -2 -7 -6 -7 -5 0 -9 -6 -10 -12 -2 -25 -13 -57 -38 -115 -8 -17 -14
-36 -14 -42 0 -6 -4 -19 -10 -29 -18 -34 -53 -117 -52 -125 1 -4 -2 -7 -7 -7
-5 0 -17 -8 -26 -17 -11 -10 -35 -17 -64 -18 -25 -1 -58 -9 -73 -19 -24 -16
-26 -22 -27 -94 -1 -152 -5 -161 -51 -117 -65 62 -78 142 -40 240 18 45 20 65
8 65 -6 0 -9 3 -6 6 4 3 -4 21 -18 41 -27 40 -22 60 22 83 15 8 49 37 76 64
38 39 48 55 47 80 -2 34 -26 115 -39 131 -35 42 -151 298 -165 365 -2 8 -4 16
-5 18 -3 3 -4 6 -19 77 -7 33 -16 67 -20 75 -4 8 -7 27 -6 43 1 15 -1 27 -5
27 -4 0 -7 7 -7 15 0 8 5 15 10 15 5 0 5 6 -2 13 -6 8 -13 81 -17 168 -8 178
-11 234 -14 234 -3 0 -13 160 -24 370 -4 80 -9 108 -33 165 -3 8 -7 20 -9 25
-19 58 -30 85 -36 85 -5 0 -8 9 -8 20 0 12 -7 32 -16 45 -9 13 -13 29 -10 34
4 5 3 12 -2 15 -5 3 -9 28 -11 57 -1 29 -7 61 -12 71 -5 10 -7 18 -4 18 4 0 0
7 -8 15 -9 8 -17 19 -19 25 -1 5 -17 12 -33 16 -31 6 -43 -4 -193 -162 -24
-26 -50 -34 -107 -35 -50 -2 -60 2 -88 28 -18 17 -54 50 -81 74 -26 24 -64 59
-84 77 -43 40 -57 40 -71 2 -5 -16 -7 -30 -4 -30 3 0 0 -6 -6 -14 -7 -8 -8
-17 -4 -19 11 -7 16 -214 6 -230 -4 -7 -8 -16 -9 -22 -1 -5 -5 -23 -9 -40 -4
-16 -8 -91 -9 -165 -2 -130 -4 -137 -31 -180 -16 -25 -30 -47 -30 -50 -1 -7
-44 -100 -56 -123 -5 -10 -7 -22 -4 -27 4 -6 1 -10 -4 -10 -6 0 -11 -9 -11
-20 0 -11 -4 -20 -8 -20 -5 0 -9 -6 -10 -12 0 -7 -3 -23 -6 -35 -3 -13 3 -32
16 -48 11 -14 21 -31 22 -39 1 -7 9 -25 19 -39 15 -23 22 -25 77 -23 34 1 61
-2 64 -8 3 -7 5 -7 5 1 1 6 10 9 22 6 12 -3 18 -11 15 -19 -3 -8 0 -14 6 -14
7 0 7 -4 -1 -13 -6 -8 -12 -31 -14 -53 -1 -21 -5 -44 -9 -49 -3 -6 -4 -18 -3
-27 2 -10 -1 -18 -7 -18 -6 0 -8 -6 -5 -14 3 -7 2 -17 -3 -22 -5 -5 -11 -20
-14 -34 -3 -14 -14 -53 -25 -87 -10 -35 -17 -63 -15 -63 3 0 -2 -10 -10 -22
-8 -13 -15 -26 -16 -30 0 -5 0 -9 -1 -10 0 -2 -2 -11 -4 -21 -7 -36 -14 -47
-29 -41 -13 5 -42 55 -46 79 -1 6 -5 15 -9 20 -5 6 -12 24 -16 40 -4 17 -9 39
-12 50 -11 45 -14 75 -19 185 -2 63 -7 167 -10 230 -3 63 -5 127 -5 142 1 15
-3 29 -9 33 -6 4 -6 15 0 31 7 17 7 23 0 19 -7 -4 -7 2 -1 18 6 14 7 27 4 30
-3 3 -6 36 -7 74 -1 37 -5 74 -9 81 -5 7 -4 12 3 12 6 0 8 5 3 13 -4 6 -8 21
-10 32 -1 11 -5 36 -8 55 -3 19 -8 46 -10 59 -2 13 -6 26 -9 29 -3 2 -1 12 4
22 5 10 6 20 3 24 -4 3 -7 31 -8 60 -1 52 -16 86 -38 86 -6 0 -52 -40 -101
-89 l-91 -89 -67 2 c-79 3 -74 0 -204 139 -39 41 -58 46 -69 20 -8 -18 -8 -34
-3 -105 2 -21 0 -38 -5 -38 -4 0 -5 -5 -2 -10 15 -24 3 -207 -14 -220 -3 -3
-6 -61 -5 -130 0 -70 -4 -134 -10 -145 -6 -11 -11 -22 -11 -25 -1 -3 -8 -18
-15 -35 -7 -16 -14 -34 -16 -40 -2 -5 -11 -31 -20 -56 -17 -44 -17 -49 0 -102
20 -65 31 -76 75 -79 35 -3 59 -22 41 -33 -6 -3 -7 -12 -3 -18 10 -17 13 -39
5 -51 -3 -6 -7 -28 -8 -51 -1 -22 -2 -40 -4 -40 -2 0 -3 -7 -13 -55 -8 -36
-44 -138 -67 -187 -11 -24 -20 -47 -20 -52 0 -5 -7 -14 -15 -21 -9 -7 -13 -15
-11 -18 3 -3 -3 -17 -14 -32 -11 -16 -20 -32 -20 -37 0 -4 -18 -32 -40 -61
-22 -29 -40 -55 -40 -57 0 -3 -7 -13 -16 -22 -39 -45 -64 -79 -64 -90 0 -7 -4
-13 -10 -13 -26 0 -5 -43 40 -82 49 -43 69 -81 49 -94 -23 -14 -29 -55 -14
-91 16 -39 20 -123 6 -123 -5 0 -7 -9 -4 -19 3 -13 -13 -37 -56 -80 -33 -34
-65 -61 -71 -61 -17 0 -90 -77 -90 -94 0 -11 -4 -14 -12 -10 -9 5 -9 2 1 -9 9
-12 10 -17 2 -17 -7 0 -9 -5 -6 -10 4 -6 9 -23 11 -38 3 -15 14 -46 24 -68 18
-41 18 -42 -5 -83 -13 -22 -21 -41 -17 -41 4 0 8 -27 8 -61 1 -73 22 -99 80
-105 82 -8 196 -14 374 -19 102 -3 200 -7 218 -9 18 -2 32 1 32 7 0 7 4 7 12
-1 7 -7 23 -12 36 -12 13 0 21 -4 17 -9 -3 -5 -1 -12 4 -15 10 -7 9 -25 -2
-43 -5 -8 -4 -13 2 -13 6 0 11 -13 11 -29 0 -34 24 -84 42 -87 7 -2 24 -6 38
-9 14 -3 54 -9 90 -12 36 -3 73 -9 82 -14 10 -5 19 -5 23 0 3 6 15 7 28 5 12
-3 144 -7 292 -10 488 -8 730 -12 742 -13 23 -2 19 -37 -9 -66 -26 -28 -28
-37 -30 -124 -2 -91 -2 -94 25 -117 16 -13 35 -25 43 -25 16 -2 33 -5 37 -9 4
-3 41 -10 82 -15 42 -6 80 -12 80 -15 0 -1 27 -3 60 -5 63 -4 113 -9 233 -19
39 -4 77 -4 84 0 6 4 142 6 302 4 160 -1 312 -2 339 -1 58 1 68 1 137 2 30 0
102 2 160 5 58 2 147 5 197 7 51 1 93 6 93 11 0 5 6 3 13 -3 8 -6 17 -8 21 -4
3 4 25 8 49 9 108 5 312 20 312 24 0 1 20 3 45 5 95 6 217 28 262 48 31 13 42
55 18 74 -10 7 -15 31 -16 70 -2 83 -2 83 -22 83 -16 0 -39 26 -54 62 -11 27
27 67 60 64 15 -2 27 -5 27 -6 0 -4 476 -11 565 -9 41 1 105 2 143 3 37 0 67
3 67 6 0 3 21 6 48 6 45 1 166 9 302 20 36 3 97 7 136 9 40 2 80 8 90 13 11 6
24 12 29 14 6 1 9 12 7 23 -1 11 -4 58 -5 105 l-2 85 45 5 c25 3 62 2 83 -1
20 -4 40 -2 43 3 3 5 12 7 20 4 7 -3 82 -5 166 -5 84 -1 162 -1 173 -1 137 0
325 6 350 12 11 2 32 8 47 12 l28 8 -22 17 c-16 14 -21 30 -22 72 -1 30 -10
68 -19 86 -21 39 -21 65 -2 102 8 16 12 31 9 34 -3 3 -2 12 2 19 14 21 12 71
-2 94 -8 11 -11 24 -7 29 5 4 2 5 -4 1 -12 -6 -18 11 -14 36 0 4 -21 22 -47
39 -67 46 -101 79 -121 119 -19 38 -26 94 -14 113 4 7 8 14 9 17 0 3 6 18 13
34 13 31 11 54 -4 73 -5 7 -16 19 -23 28 -14 17 2 37 71 85 57 40 64 73 23
116 -56 58 -84 93 -79 98 4 3 0 6 -9 6 -8 0 -21 12 -29 28 -8 15 -17 29 -21
32 -19 15 -108 177 -136 247 -31 81 -43 111 -48 128 -9 26 -31 161 -28 167 2
4 -1 10 -7 14 -8 4 -7 9 2 15 9 6 10 9 2 9 -6 0 -10 11 -9 25 3 25 22 55 34
53 20 -2 32 3 27 11 -3 5 -1 13 5 16 20 13 9 127 -18 185 -21 46 -25 69 -25
142 0 47 3 90 7 96 3 5 3 12 0 14 -3 3 -7 55 -9 114 -5 141 -11 203 -18 211
-4 3 -2 14 4 24 5 11 6 19 1 19 -4 0 -8 14 -7 30 0 17 4 30 10 30 6 0 6 3 0 8
-6 4 -11 20 -10 36 0 16 -7 33 -17 39 -13 9 -31 -4 -103 -75 l-86 -86 -60 3
c-66 2 -54 -6 -201 137 -59 58 -72 66 -89 58 -24 -14 -30 -37 -32 -142 -1 -48
-5 -89 -9 -93 -4 -4 -3 -17 2 -29 4 -12 4 -29 0 -37 -10 -17 -7 -359 3 -376 4
-6 3 -14 -3 -18 -7 -4 -7 -12 0 -26 6 -10 7 -19 3 -19 -7 0 -10 -205 -3 -220
1 -3 1 -9 0 -15 -1 -5 -4 -39 -6 -73 -8 -170 -16 -270 -28 -342 -5 -32 -30
-106 -43 -125 -7 -11 -13 -26 -13 -34 0 -7 -10 -30 -22 -50 -13 -20 -23 -38
-23 -41 0 -3 -6 -14 -12 -25 -10 -17 -14 -18 -37 -5 -14 7 -26 17 -26 21 0 5
-18 36 -40 70 -22 34 -40 68 -40 76 0 7 -4 13 -10 13 -5 0 -10 5 -10 10 0 6
-9 32 -21 58 -32 72 -36 83 -58 147 -20 60 -36 119 -45 165 -3 14 -8 36 -11
50 -3 14 -8 51 -11 83 -5 57 -5 58 24 68 33 11 52 44 48 83 -2 15 0 28 4 31
14 9 1 61 -34 140 -22 48 -23 59 -22 295 1 136 -2 251 -7 257 -5 7 -11 43 -13
80 -3 38 -6 73 -9 80 -2 7 0 15 6 18 5 4 7 10 5 13 -2 4 -5 39 -7 77 -2 74
-12 105 -33 105 -11 0 -178 -170 -197 -201 -4 -6 -40 -13 -80 -15 -84 -3 -81
-5 -233 140 -81 77 -119 94 -130 59 -6 -19 -10 -111 -6 -128 1 -5 1 -14 0 -20
-2 -12 1 -128 6 -215 2 -36 5 -96 6 -135 2 -38 7 -76 11 -82 5 -7 5 -13 0 -13
-10 0 -11 -585 -1 -595 4 -4 5 -12 3 -18 -10 -30 -12 -77 -4 -83 5 -3 5 -13
-1 -24 -7 -13 -7 -21 1 -26 8 -4 7 -9 -2 -15 -9 -6 -10 -9 -2 -9 12 0 12 -17
0 -37 -4 -6 -3 -14 3 -18 6 -4 7 -12 3 -18 -4 -7 -8 -26 -9 -43 -3 -47 -34
-191 -51 -238 -8 -23 -16 -45 -17 -51 -5 -26 -78 -165 -87 -165 -6 0 -7 -4 -4
-10 3 -5 1 -10 -4 -10 -6 0 -11 -6 -11 -12 0 -21 -107 -172 -157 -223 l-47
-46 40 -38 c21 -21 53 -45 70 -54 44 -23 47 -40 19 -93 -26 -48 -27 -65 -7
-100 6 -11 13 -32 16 -45 3 -13 7 -35 10 -48 3 -13 2 -29 -2 -35 -3 -6 -8 -19
-9 -29 -10 -64 -89 -152 -146 -163 -22 -3 -26 1 -33 34 -4 20 -7 71 -6 114 0
45 -4 82 -11 91 -7 8 -48 26 -92 39 -88 27 -108 46 -141 136 -10 26 -21 49
-25 52 -3 3 -10 20 -14 37 -3 18 -11 33 -16 33 -5 0 -8 3 -7 7 2 11 -13 66
-22 78 -6 8 -45 125 -56 168 -1 4 -2 8 -3 10 -2 1 -5 13 -8 27 -6 33 -9 42
-16 60 -8 18 -19 68 -20 93 -1 9 -5 17 -9 17 -5 0 -6 11 -4 25 3 14 0 25 -6
25 -6 0 -9 3 -6 6 3 3 0 32 -8 65 -8 32 -16 78 -18 102 -2 23 -5 42 -6 42 -3
0 -10 41 -16 100 -12 106 -13 128 -18 232 -2 56 -7 107 -10 112 -3 5 0 12 6
14 9 4 10 8 3 14 -12 9 -13 201 -2 221 5 6 5 18 0 25 -10 17 -11 87 -2 115 6
15 5 22 -4 22 -7 0 -8 3 -2 8 14 10 17 32 4 32 -8 0 -7 6 2 17 8 9 13 18 12
20 -2 1 -3 11 -3 22 0 15 10 20 48 26 26 5 54 10 62 12 37 9 45 12 45 14 0 1
11 3 25 4 14 1 48 6 75 10 28 4 61 9 75 10 14 2 25 4 25 5 0 1 13 3 29 5 34 5
91 65 94 100 1 14 -3 25 -8 25 -6 0 -10 6 -10 13 0 29 -79 85 -155 111 -33 11
-41 18 -45 43 -9 58 -62 105 -117 104 -5 0 -16 8 -26 17 -16 14 -18 33 -16
163 1 114 4 151 15 160 19 16 18 69 -3 98 -15 23 -18 57 -8 126 2 17 7 50 10
75 8 63 11 75 34 160 12 41 24 86 27 100 15 69 132 327 161 358 6 6 15 21 18
32 3 11 11 20 16 20 5 0 9 6 9 14 0 8 6 16 14 19 20 8 50 75 48 106 -1 14 -16
39 -32 56 -17 17 -30 34 -30 38 0 11 -31 41 -60 60 -16 10 -39 14 -65 11 -123
-14 -149 -13 -164 5 -34 39 -62 48 -163 55 -59 3 -68 2 -73 -15 -4 -10 -10
-19 -14 -19 -13 0 -31 24 -31 43 0 35 -48 124 -82 151 -18 14 -39 31 -45 37
-7 5 -13 7 -13 5 0 -3 -12 -1 -27 5 -54 20 -146 17 -199 -6z"/>
</g>
</svg>
